<svg xmlns="http://www.w3.org/2000/svg" viewBox="0 0 256 312" preserveAspectRatio="xMidYMid">
  <path d="M86.4 230l41.6 24v-54.6L86.4 175zm0-97l41.6 24V103L86.4 79zm82.4 97L128 254v-54.6l40.8-24.4zm0-97L128 157V103l40.8-24z" fill="#8C3123"/>
  <path d="M86.4 133l41.6 24 41.6-24-41.6-24zm0 97l41.6 24 41.6-24-41.6-24z" fill="#E05243"/>
  <path d="M128 0L0 68v176l128 68 128-68V68z" fill="none"/>
  <path d="M128 157l-41.6-24v-54l41.6 24z" fill="#8C3123"/>
  <path d="M128 157l41.6-24v-54l-41.6 24z" fill="#E05243"/>
  <path d="M128 254l-41.6-24v-54l41.6 24z" fill="#8C3123"/>
  <path d="M128 254l41.6-24v-54l-41.6 24z" fill="#E05243"/>
  <path d="M40 89.2l46.4 26.2V63L40 37zM40 186.4l46.4 26.2v-52.4L40 134zM169.6 89.2L216 63v52.4l-46.4 26.2zM169.6 186.4L216 134v52.4l-46.4 26.2z" fill="#5E1F18"/>
  <path d="M128 312l-128-68v-44l128 68zM128 312l128-68v-44l-128 68z" fill="#F2B0A9"/>
  <path d="M0 68l128 68 128-68L128 0z" fill="#F2B0A9" opacity=".6"/>
</svg>
