<svg xmlns="http://www.w3.org/2000/svg" viewBox="0 0 500 375" fill="none">
  <defs>
    <linearGradient id="g1" x1="0%" y1="0%" x2="100%" y2="100%">
      <stop offset="0%" stop-color="#10b981" stop-opacity="0.1"/>
      <stop offset="100%" stop-color="#06b6d4" stop-opacity="0.05"/>
    </linearGradient>
    <linearGradient id="g2" x1="0%" y1="0%" x2="100%" y2="100%">
      <stop offset="0%" stop-color="#10b981"/>
      <stop offset="100%" stop-color="#06b6d4"/>
    </linearGradient>
  </defs>
  <rect width="500" height="375" fill="url(#g1)" rx="12"/>
  <path d="M250 60 L320 100 L320 180 C320 240 280 290 250 310 C220 290 180 240 180 180 L180 100 Z" fill="url(#g2)" opacity="0.15" stroke="url(#g2)" stroke-width="2"/>
  <rect x="235" y="160" width="30" height="25" rx="4" fill="url(#g2)" opacity="0.8"/>
  <path d="M240 160 L240 148 C240 140 260 140 260 148 L260 160" stroke="url(#g2)" stroke-width="3" fill="none" stroke-linecap="round"/>
  <circle cx="250" cy="172" r="3" fill="white"/>
  <circle cx="120" cy="100" r="6" fill="#10b981" opacity="0.6"/>
  <circle cx="380" cy="120" r="8" fill="#06b6d4" opacity="0.5"/>
  <circle cx="150" cy="280" r="5" fill="#8b5cf6" opacity="0.4"/>
  <circle cx="370" cy="260" r="7" fill="#10b981" opacity="0.5"/>
  <line x1="120" y1="100" x2="180" y2="140" stroke="#10b981" stroke-width="1" opacity="0.3"/>
  <line x1="380" y1="120" x2="320" y2="160" stroke="#06b6d4" stroke-width="1" opacity="0.3"/>
  <line x1="150" y1="280" x2="200" y2="240" stroke="#8b5cf6" stroke-width="1" opacity="0.3"/>
  <line x1="370" y1="260" x2="300" y2="220" stroke="#10b981" stroke-width="1" opacity="0.3"/>
  <rect x="90" y="200" width="20" height="20" rx="3" fill="#f59e0b" opacity="0.2" transform="rotate(15 100 210)"/>
  <circle cx="420" cy="200" r="12" stroke="#ec4899" stroke-width="1.5" opacity="0.3" fill="none"/>
  <polygon points="100,80 115,105 85,105" fill="#6366f1" opacity="0.15"/>
</svg>
