<svg xmlns="http://www.w3.org/2000/svg" viewBox="0 0 600 450" fill="none">
  <rect width="600" height="450" fill="#0f172a" rx="12"/>
  <text x="24" y="36" fill="#f1f5f9" font-size="16" font-family="system-ui" font-weight="600">AI Detection Engine</text>
  <rect x="460" y="18" width="120" height="28" rx="14" fill="#10b981" opacity="0.2" stroke="#10b981" stroke-width="1"/>
  <text x="520" y="37" fill="#10b981" font-size="11" font-family="system-ui" text-anchor="middle" font-weight="500">Hybrid Mode</text>
  <rect x="24" y="60" width="170" height="50" rx="8" fill="#1e293b" stroke="#334155" stroke-width="1"/>
  <text x="36" y="80" fill="#94a3b8" font-size="12" font-family="system-ui">Regex Mode</text>
  <text x="36" y="98" fill="#64748b" font-size="10" font-family="system-ui">Fast · High accuracy</text>
  <rect x="214" y="60" width="170" height="50" rx="8" fill="#1e293b" stroke="#334155" stroke-width="1"/>
  <text x="226" y="80" fill="#94a3b8" font-size="12" font-family="system-ui">NLP Mode</text>
  <text x="226" y="98" fill="#64748b" font-size="10" font-family="system-ui">Deep · Contextual</text>
  <rect x="404" y="60" width="172" height="50" rx="8" fill="#10b981" opacity="0.15" stroke="#10b981" stroke-width="2"/>
  <text x="416" y="80" fill="#10b981" font-size="12" font-family="system-ui" font-weight="500">Hybrid Mode</text>
  <text x="416" y="98" fill="#64748b" font-size="10" font-family="system-ui">Best of both · Recommended</text>
  <text x="24" y="145" fill="#f1f5f9" font-size="14" font-family="system-ui" font-weight="500">Confidence Scores</text>
  <rect x="24" y="160" width="552" height="40" rx="6" fill="#1e293b"/>
  <text x="36" y="184" fill="#f1f5f9" font-size="12" font-family="system-ui">SSN Pattern Match</text>
  <rect x="350" y="172" width="200" height="12" rx="6" fill="#1e293b"/>
  <rect x="350" y="172" width="190" height="12" rx="6" fill="#10b981"/>
  <text x="556" y="184" fill="#10b981" font-size="11" font-family="system-ui" text-anchor="end">95%</text>
  <rect x="24" y="208" width="552" height="40" rx="6" fill="#1e293b"/>
  <text x="36" y="232" fill="#f1f5f9" font-size="12" font-family="system-ui">Email Context Detection</text>
  <rect x="350" y="220" width="200" height="12" rx="6" fill="#1e293b"/>
  <rect x="350" y="220" width="180" height="12" rx="6" fill="#06b6d4"/>
  <text x="556" y="232" fill="#06b6d4" font-size="11" font-family="system-ui" text-anchor="end">90%</text>
  <rect x="24" y="256" width="552" height="40" rx="6" fill="#1e293b"/>
  <text x="36" y="280" fill="#f1f5f9" font-size="12" font-family="system-ui">Name + Address (NLP)</text>
  <rect x="350" y="268" width="200" height="12" rx="6" fill="#1e293b"/>
  <rect x="350" y="268" width="170" height="12" rx="6" fill="#f59e0b"/>
  <text x="556" y="280" fill="#f59e0b" font-size="11" font-family="system-ui" text-anchor="end">85%</text>
  <rect x="24" y="304" width="552" height="40" rx="6" fill="#1e293b"/>
  <text x="36" y="328" fill="#f1f5f9" font-size="12" font-family="system-ui">Credit Card Validation</text>
  <rect x="350" y="316" width="200" height="12" rx="6" fill="#1e293b"/>
  <rect x="350" y="316" width="196" height="12" rx="6" fill="#10b981"/>
  <text x="556" y="328" fill="#10b981" font-size="11" font-family="system-ui" text-anchor="end">98%</text>
  <text x="24" y="380" fill="#f1f5f9" font-size="14" font-family="system-ui" font-weight="500">Active LLM Providers</text>
  <rect x="24" y="395" width="170" height="40" rx="8" fill="#1e293b" stroke="#334155" stroke-width="1"/>
  <text x="36" y="420" fill="#94a3b8" font-size="12" font-family="system-ui">Ollama (Local)</text>
  <rect x="214" y="395" width="170" height="40" rx="8" fill="#1e293b" stroke="#334155" stroke-width="1"/>
  <text x="226" y="420" fill="#94a3b8" font-size="12" font-family="system-ui">OpenAI GPT-4o</text>
  <rect x="404" y="395" width="172" height="40" rx="8" fill="#1e293b" stroke="#334155" stroke-width="1"/>
  <text x="416" y="420" fill="#94a3b8" font-size="12" font-family="system-ui">Claude 3.5 Sonnet</text>
</svg>