<svg xmlns="http://www.w3.org/2000/svg" viewBox="0 0 500 375" fill="none">
  <defs>
    <linearGradient id="r1" x1="0%" y1="0%" x2="100%" y2="100%">
      <stop offset="0%" stop-color="#10b981" stop-opacity="0.08"/>
      <stop offset="100%" stop-color="#f59e0b" stop-opacity="0.04"/>
    </linearGradient>
  </defs>
  <rect width="500" height="375" fill="url(#r1)" rx="12"/>
  <rect x="150" y="60" width="200" height="250" rx="8" fill="white" stroke="#10b981" stroke-width="2"/>
  <rect x="150" y="60" width="20" height="250" fill="#10b981" opacity="0.3" rx="4"/>
  <line x1="190" y1="100" x2="320" y2="100" stroke="#e2e8f0" stroke-width="2"/>
  <line x1="190" y1="120" x2="300" y2="120" stroke="#e2e8f0" stroke-width="2"/>
  <line x1="190" y1="140" x2="310" y2="140" stroke="#e2e8f0" stroke-width="2"/>
  <line x1="190" y1="160" x2="280" y2="160" stroke="#e2e8f0" stroke-width="2"/>
  <rect x="190" y="180" width="130" height="80" rx="6" fill="#f8fafc" stroke="#cbd5e1" stroke-width="1"/>
  <rect x="200" y="192" width="60" height="4" rx="2" fill="#10b981" opacity="0.6"/>
  <rect x="200" y="202" width="90" height="4" rx="2" fill="#64748b" opacity="0.4"/>
  <rect x="200" y="212" width="75" height="4" rx="2" fill="#64748b" opacity="0.4"/>
  <rect x="200" y="222" width="50" height="4" rx="2" fill="#10b981" opacity="0.6"/>
  <rect x="200" y="232" width="85" height="4" rx="2" fill="#64748b" opacity="0.4"/>
  <circle cx="100" cy="120" r="20" fill="#f59e0b" opacity="0.15"/>
  <rect x="92" y="112" width="16" height="20" rx="2" fill="#f59e0b" opacity="0.5"/>
  <circle cx="400" cy="100" r="18" fill="#06b6d4" opacity="0.15"/>
  <rect x="392" y="90" width="16" height="20" rx="2" fill="#06b6d4" opacity="0.5"/>
  <circle cx="90" cy="280" r="22" fill="#8b5cf6" opacity="0.12"/>
  <path d="M82 280 C82 270 98 270 98 280 L98 288 C98 290 94 290 94 288 L94 282 C94 278 86 278 86 282 L86 288 C86 290 82 290 82 288 Z" fill="#8b5cf6" opacity="0.5"/>
  <circle cx="410" cy="260" r="20" fill="#ec4899" opacity="0.12"/>
  <circle cx="410" cy="252" r="6" fill="#ec4899" opacity="0.5"/>
  <path d="M400 268 C400 262 420 262 420 268 L420 272 L400 272 Z" fill="#ec4899" opacity="0.5"/>
</svg>
